<svg xmlns="http://www.w3.org/2000/svg" xmlns:xlink="http://www.w3.org/1999/xlink" width="650" zoomAndPan="magnify" viewBox="0 0 487.5 149.999998" height="200" preserveAspectRatio="xMidYMid meet" version="1.0"><defs><g/><clipPath id="c3a51ecef6"><path d="M 11.699219 37 L 118.839844 37 L 118.839844 130 L 11.699219 130 Z M 11.699219 37 " clip-rule="nonzero"/></clipPath><clipPath id="e75606db3a"><path d="M 149.382812 28 L 237 28 L 237 134 L 149.382812 134 Z M 149.382812 28 " clip-rule="nonzero"/></clipPath><clipPath id="b2ea964db4"><path d="M 193 8.359375 L 212 8.359375 L 212 27 L 193 27 Z M 193 8.359375 " clip-rule="nonzero"/></clipPath><clipPath id="28c89188b9"><path d="M 100.976562 21.8125 L 116.375 21.8125 L 116.375 37.207031 L 100.976562 37.207031 Z M 100.976562 21.8125 " clip-rule="nonzero"/></clipPath><clipPath id="c17d341ec9"><path d="M 108.675781 21.8125 C 104.421875 21.8125 100.976562 25.257812 100.976562 29.511719 C 100.976562 33.761719 104.421875 37.207031 108.675781 37.207031 C 112.925781 37.207031 116.375 33.761719 116.375 29.511719 C 116.375 25.257812 112.925781 21.8125 108.675781 21.8125 Z M 108.675781 21.8125 " clip-rule="nonzero"/></clipPath><clipPath id="bd7c69bad0"><path d="M 147.015625 25.859375 L 162.167969 25.859375 L 162.167969 41.011719 L 147.015625 41.011719 Z M 147.015625 25.859375 " clip-rule="nonzero"/></clipPath><clipPath id="a9b2011c6f"><path d="M 154.59375 25.859375 C 150.410156 25.859375 147.015625 29.253906 147.015625 33.4375 C 147.015625 37.621094 150.410156 41.011719 154.59375 41.011719 C 158.777344 41.011719 162.167969 37.621094 162.167969 33.4375 C 162.167969 29.253906 158.777344 25.859375 154.59375 25.859375 Z M 154.59375 25.859375 " clip-rule="nonzero"/></clipPath><clipPath id="fc3b7ead9a"><path d="M 123.140625 68.230469 L 136.675781 68.230469 L 136.675781 81.769531 L 123.140625 81.769531 Z M 123.140625 68.230469 " clip-rule="nonzero"/></clipPath><clipPath id="a8f51141e0"><path d="M 129.90625 68.230469 C 126.167969 68.230469 123.140625 71.261719 123.140625 75 C 123.140625 78.738281 126.167969 81.769531 129.90625 81.769531 C 133.644531 81.769531 136.675781 78.738281 136.675781 75 C 136.675781 71.261719 133.644531 68.230469 129.90625 68.230469 Z M 129.90625 68.230469 " clip-rule="nonzero"/></clipPath><clipPath id="b6bc890581"><path d="M 156.316406 58.917969 L 168.019531 58.917969 L 168.019531 70.621094 L 156.316406 70.621094 Z M 156.316406 58.917969 " clip-rule="nonzero"/></clipPath><clipPath id="49fd3f4c08"><path d="M 162.167969 58.917969 C 158.9375 58.917969 156.316406 61.539062 156.316406 64.769531 C 156.316406 68 158.9375 70.621094 162.167969 70.621094 C 165.398438 70.621094 168.019531 68 168.019531 64.769531 C 168.019531 61.539062 165.398438 58.917969 162.167969 58.917969 Z M 162.167969 58.917969 " clip-rule="nonzero"/></clipPath><clipPath id="6a0bd2ac6b"><path d="M 152.457031 92.734375 L 160.035156 92.734375 L 160.035156 100.3125 L 152.457031 100.3125 Z M 152.457031 92.734375 " clip-rule="nonzero"/></clipPath><clipPath id="d5d98d4ac9"><path d="M 156.246094 92.734375 C 154.15625 92.734375 152.457031 94.433594 152.457031 96.523438 C 152.457031 98.613281 154.15625 100.3125 156.246094 100.3125 C 158.339844 100.3125 160.035156 98.613281 160.035156 96.523438 C 160.035156 94.433594 158.339844 92.734375 156.246094 92.734375 Z M 156.246094 92.734375 " clip-rule="nonzero"/></clipPath><clipPath id="11d15c3f0b"><path d="M 111.15625 103 L 118.941406 103 L 118.941406 110.785156 L 111.15625 110.785156 Z M 111.15625 103 " clip-rule="nonzero"/></clipPath><clipPath id="d78f80bde2"><path d="M 115.046875 103 C 112.898438 103 111.15625 104.742188 111.15625 106.894531 C 111.15625 109.042969 112.898438 110.785156 115.046875 110.785156 C 117.199219 110.785156 118.941406 109.042969 118.941406 106.894531 C 118.941406 104.742188 117.199219 103 115.046875 103 Z M 115.046875 103 " clip-rule="nonzero"/></clipPath></defs><g clip-path="url(#c3a51ecef6)"><path fill="#faad26" d="M 11.917969 86.734375 C 11.699219 85.644531 11.699219 84.445312 11.699219 83.355469 C 11.699219 75.726562 15.078125 68.421875 19.328125 62.210938 C 23.144531 56.652344 28.160156 52.074219 34.042969 48.804688 C 40.695312 45.207031 49.195312 42.589844 56.824219 43.132812 C 64.238281 43.679688 71.542969 45.097656 79.0625 45.421875 C 86.257812 45.75 93.558594 45.75 100.753906 44.769531 C 106.203125 43.898438 111.980469 42.480469 116.449219 39.101562 C 117.214844 38.554688 117.867188 38.011719 118.414062 37.359375 C 118.195312 37.574219 118.085938 38.339844 117.976562 38.554688 C 117.539062 39.648438 116.996094 40.738281 116.449219 41.71875 C 114.378906 45.207031 111.546875 48.257812 108.277344 50.546875 C 102.824219 54.363281 96.503906 56.324219 90.179688 57.304688 C 87.238281 57.742188 84.292969 57.960938 81.242188 57.960938 C 78.953125 57.960938 76.664062 57.632812 74.375 57.851562 C 72.195312 57.960938 70.125 58.832031 68.269531 59.921875 C 65 61.882812 63.367188 65.152344 64.890625 68.859375 C 66.089844 71.695312 68.378906 74.527344 70.996094 76.164062 C 75.355469 78.886719 79.28125 82.375 82.660156 86.191406 C 86.039062 90.007812 88.765625 94.367188 90.507812 99.164062 C 92.46875 104.722656 92.90625 110.609375 91.707031 116.386719 C 90.726562 121.179688 88.65625 125.648438 86.148438 129.792969 C 88.765625 125.542969 86.367188 114.96875 85.277344 110.714844 C 82.550781 100.363281 74.8125 91.53125 64.347656 88.699219 C 55.84375 86.410156 45.707031 86.953125 38.511719 81.175781 C 36.988281 79.976562 35.460938 78.34375 34.699219 76.488281 C 34.371094 75.617188 34.042969 74.855469 33.390625 74.089844 C 29.574219 69.839844 24.015625 76.707031 22.597656 79.867188 C 19.109375 87.71875 19.765625 96.65625 23.363281 104.285156 C 23.472656 104.175781 13.660156 94.585938 11.917969 86.734375 Z M 11.917969 86.734375 " fill-opacity="1" fill-rule="nonzero"/></g><path fill="#faad26" d="M 54.429688 83.683594 C 41.675781 82.484375 30.011719 89.132812 24.234375 99.707031 C 29.574219 91.097656 39.496094 85.753906 50.285156 86.84375 C 65.328125 88.371094 76.445312 101.777344 74.921875 116.820312 C 73.394531 131.863281 59.988281 142.980469 44.945312 141.457031 C 34.152344 140.367188 25.433594 133.28125 21.945312 123.796875 C 25.542969 135.351562 35.789062 144.179688 48.542969 145.378906 C 65.546875 147.015625 80.699219 134.589844 82.441406 117.582031 C 83.859375 100.578125 71.433594 85.429688 54.429688 83.683594 Z M 54.429688 83.683594 " fill-opacity="1" fill-rule="nonzero"/><path fill="#faad26" d="M 49.632812 91.53125 C 59.007812 92.402344 66.527344 98.945312 69.144531 107.335938 C 66.527344 100.363281 60.097656 95.128906 52.246094 94.367188 C 41.128906 93.277344 31.320312 101.34375 30.230469 112.460938 C 29.140625 123.578125 37.207031 133.390625 48.324219 134.480469 C 56.28125 135.242188 63.476562 131.316406 67.398438 124.996094 C 63.148438 132.734375 54.535156 137.640625 45.164062 136.769531 C 32.628906 135.570312 23.472656 124.449219 24.777344 111.914062 C 25.976562 99.488281 37.097656 90.332031 49.632812 91.53125 Z M 49.632812 91.53125 " fill-opacity="1" fill-rule="nonzero"/><path fill="#faad26" d="M 51.15625 32.125 C 51.15625 32.742188 51.097656 33.351562 50.976562 33.953125 C 50.859375 34.558594 50.679688 35.144531 50.445312 35.710938 C 50.207031 36.28125 49.921875 36.820312 49.578125 37.332031 C 49.234375 37.84375 48.847656 38.320312 48.414062 38.753906 C 47.976562 39.1875 47.503906 39.578125 46.992188 39.917969 C 46.480469 40.261719 45.941406 40.550781 45.371094 40.785156 C 44.800781 41.023438 44.214844 41.199219 43.613281 41.320312 C 43.007812 41.441406 42.398438 41.5 41.785156 41.5 C 41.167969 41.5 40.558594 41.441406 39.953125 41.320312 C 39.351562 41.199219 38.765625 41.023438 38.195312 40.785156 C 37.628906 40.550781 37.085938 40.261719 36.574219 39.917969 C 36.0625 39.578125 35.589844 39.1875 35.15625 38.753906 C 34.71875 38.320312 34.332031 37.84375 33.988281 37.332031 C 33.648438 36.820312 33.359375 36.28125 33.121094 35.710938 C 32.886719 35.144531 32.710938 34.558594 32.589844 33.953125 C 32.46875 33.351562 32.410156 32.742188 32.410156 32.125 C 32.410156 31.511719 32.46875 30.898438 32.589844 30.296875 C 32.710938 29.691406 32.886719 29.105469 33.121094 28.539062 C 33.359375 27.96875 33.648438 27.429688 33.988281 26.917969 C 34.332031 26.40625 34.71875 25.933594 35.15625 25.496094 C 35.589844 25.0625 36.0625 24.671875 36.574219 24.332031 C 37.085938 23.988281 37.628906 23.699219 38.195312 23.464844 C 38.765625 23.230469 39.351562 23.050781 39.953125 22.929688 C 40.558594 22.8125 41.167969 22.75 41.785156 22.75 C 42.398438 22.75 43.007812 22.8125 43.613281 22.929688 C 44.214844 23.050781 44.800781 23.230469 45.371094 23.464844 C 45.941406 23.699219 46.480469 23.988281 46.992188 24.332031 C 47.503906 24.671875 47.976562 25.0625 48.414062 25.496094 C 48.847656 25.933594 49.234375 26.40625 49.578125 26.917969 C 49.921875 27.429688 50.207031 27.96875 50.445312 28.539062 C 50.679688 29.105469 50.859375 29.691406 50.976562 30.296875 C 51.097656 30.898438 51.15625 31.511719 51.15625 32.125 Z M 51.15625 32.125 " fill-opacity="1" fill-rule="nonzero"/><g clip-path="url(#e75606db3a)"><path fill="#57c5f0" d="M 149.277344 43.441406 C 156.789062 43.03125 167.28125 43.648438 174.378906 40.765625 C 180.652344 38.195312 186.207031 34.285156 192.378906 31.507812 C 203.589844 26.570312 215.421875 28.527344 224.371094 36.960938 C 234.039062 46.21875 237.535156 63.707031 234.449219 76.152344 C 235.789062 70.597656 224.265625 47.863281 217.890625 48.378906 C 211.511719 48.894531 216.550781 62.164062 217.476562 64.835938 C 219.125 70.1875 221.285156 75.535156 224.0625 80.371094 C 228.691406 88.496094 234.757812 94.769531 236.199219 104.234375 C 237.742188 113.902344 236.300781 123.777344 233.113281 133.035156 C 234.347656 129.640625 232.289062 123.160156 231.570312 119.664062 C 230.128906 112.464844 227.457031 105.46875 223.648438 99.089844 C 222.210938 96.621094 220.5625 94.257812 218.09375 92.816406 C 212.335938 89.320312 206.675781 95.183594 203.695312 99.605469 C 201.121094 103.515625 199.167969 107.835938 197.726562 112.359375 C 196.800781 115.34375 196.082031 118.429688 195.566406 121.617188 C 195.257812 123.367188 195.054688 125.21875 194.847656 127.070312 C 194.640625 128.714844 193.921875 131.492188 194.332031 133.035156 C 194.332031 133.035156 187.441406 109.273438 196.492188 88.1875 C 198.449219 83.558594 198.550781 76.871094 198.550781 71.933594 C 198.550781 66.484375 197.832031 60.824219 196.183594 55.683594 C 194.746094 51.15625 192.070312 46.835938 186.722656 46.628906 C 184.972656 46.527344 183.328125 47.042969 181.578125 47.351562 C 176.023438 48.480469 170.261719 48.789062 164.605469 48.171875 C 162.34375 47.96875 160.078125 47.554688 158.023438 46.835938 C 158.125 46.9375 151.851562 45.703125 149.277344 43.441406 Z M 149.277344 43.441406 " fill-opacity="1" fill-rule="nonzero"/></g><g clip-path="url(#b2ea964db4)"><path fill="#57c5f0" d="M 211.410156 17.3125 C 211.410156 17.894531 211.351562 18.46875 211.238281 19.039062 C 211.125 19.609375 210.957031 20.164062 210.734375 20.699219 C 210.511719 21.234375 210.242188 21.746094 209.917969 22.226562 C 209.59375 22.710938 209.226562 23.15625 208.816406 23.570312 C 208.40625 23.980469 207.960938 24.347656 207.476562 24.667969 C 206.992188 24.992188 206.484375 25.265625 205.949219 25.488281 C 205.410156 25.707031 204.859375 25.875 204.289062 25.988281 C 203.71875 26.101562 203.144531 26.160156 202.5625 26.160156 C 201.980469 26.160156 201.40625 26.101562 200.835938 25.988281 C 200.265625 25.875 199.714844 25.707031 199.175781 25.488281 C 198.640625 25.265625 198.128906 24.992188 197.648438 24.667969 C 197.164062 24.347656 196.71875 23.980469 196.308594 23.570312 C 195.894531 23.15625 195.53125 22.710938 195.207031 22.226562 C 194.882812 21.746094 194.613281 21.234375 194.390625 20.699219 C 194.167969 20.164062 194 19.609375 193.886719 19.039062 C 193.773438 18.46875 193.714844 17.894531 193.714844 17.3125 C 193.714844 16.734375 193.773438 16.15625 193.886719 15.585938 C 194 15.019531 194.167969 14.464844 194.390625 13.929688 C 194.613281 13.390625 194.882812 12.882812 195.207031 12.398438 C 195.53125 11.914062 195.894531 11.46875 196.308594 11.058594 C 196.71875 10.648438 197.164062 10.28125 197.648438 9.957031 C 198.128906 9.636719 198.640625 9.363281 199.175781 9.140625 C 199.714844 8.917969 200.265625 8.75 200.835938 8.636719 C 201.40625 8.523438 201.980469 8.46875 202.5625 8.46875 C 203.144531 8.46875 203.71875 8.523438 204.289062 8.636719 C 204.859375 8.75 205.410156 8.917969 205.949219 9.140625 C 206.484375 9.363281 206.992188 9.636719 207.476562 9.957031 C 207.960938 10.28125 208.40625 10.648438 208.816406 11.058594 C 209.226562 11.46875 209.59375 11.914062 209.917969 12.398438 C 210.242188 12.882812 210.511719 13.390625 210.734375 13.929688 C 210.957031 14.464844 211.125 15.019531 211.238281 15.585938 C 211.351562 16.15625 211.410156 16.734375 211.410156 17.3125 Z M 211.410156 17.3125 " fill-opacity="1" fill-rule="nonzero"/></g><g clip-path="url(#28c89188b9)"><g clip-path="url(#c17d341ec9)"><path fill="#faad26" d="M 100.976562 21.8125 L 116.375 21.8125 L 116.375 37.207031 L 100.976562 37.207031 Z M 100.976562 21.8125 " fill-opacity="1" fill-rule="nonzero"/></g></g><g clip-path="url(#bd7c69bad0)"><g clip-path="url(#a9b2011c6f)"><path fill="#57c5f0" d="M 147.015625 25.859375 L 162.167969 25.859375 L 162.167969 41.011719 L 147.015625 41.011719 Z M 147.015625 25.859375 " fill-opacity="1" fill-rule="nonzero"/></g></g><g clip-path="url(#fc3b7ead9a)"><g clip-path="url(#a8f51141e0)"><path fill="#faad26" d="M 123.140625 68.230469 L 136.675781 68.230469 L 136.675781 81.769531 L 123.140625 81.769531 Z M 123.140625 68.230469 " fill-opacity="1" fill-rule="nonzero"/></g></g><g clip-path="url(#b6bc890581)"><g clip-path="url(#49fd3f4c08)"><path fill="#57c5f0" d="M 156.316406 58.917969 L 168.019531 58.917969 L 168.019531 70.621094 L 156.316406 70.621094 Z M 156.316406 58.917969 " fill-opacity="1" fill-rule="nonzero"/></g></g><g fill="#faad26" fill-opacity="1"><g transform="translate(261.517274, 89.973447)"><g><path d="M 4.890625 -31.765625 L 12.265625 -31.765625 C 14.804688 -31.765625 16.734375 -31.160156 18.046875 -29.953125 C 19.367188 -28.753906 20.03125 -27.078125 20.03125 -24.921875 L 20.03125 -22 C 20.03125 -19.226562 18.875 -17.453125 16.5625 -16.671875 C 19.207031 -15.953125 20.53125 -14.140625 20.53125 -11.234375 L 20.53125 -6.84375 C 20.53125 -4.65625 19.878906 -2.96875 18.578125 -1.78125 C 17.273438 -0.59375 15.332031 0 12.75 0 L 4.890625 0 Z M 17.109375 -6.84375 L 17.109375 -11.234375 C 17.109375 -12.285156 16.71875 -13.238281 15.9375 -14.09375 C 15.15625 -14.957031 14.09375 -15.390625 12.75 -15.390625 L 8.3125 -15.390625 L 8.3125 -2.9375 L 12.75 -2.9375 C 14.125 -2.9375 15.191406 -3.316406 15.953125 -4.078125 C 16.722656 -4.847656 17.109375 -5.769531 17.109375 -6.84375 Z M 16.625 -22 L 16.625 -24.921875 C 16.625 -25.960938 16.238281 -26.875 15.46875 -27.65625 C 14.707031 -28.445312 13.640625 -28.84375 12.265625 -28.84375 L 8.3125 -28.84375 L 8.3125 -17.84375 L 12.265625 -17.84375 C 13.640625 -17.84375 14.707031 -18.265625 15.46875 -19.109375 C 16.238281 -19.953125 16.625 -20.914062 16.625 -22 Z M 16.625 -22 "/></g></g></g><g fill="#57c5f0" fill-opacity="1"><g transform="translate(286.210255, 89.973447)"><g><path d="M 19.3125 0 L 4.890625 0 L 4.890625 -31.765625 L 18.8125 -31.765625 L 18.8125 -28.84375 L 8.3125 -28.84375 L 8.3125 -17.59375 L 16.859375 -17.59375 L 16.859375 -14.65625 L 8.3125 -14.65625 L 8.3125 -2.9375 L 19.3125 -2.9375 Z M 19.3125 0 "/></g></g></g><g fill="#57c5f0" fill-opacity="1"><g transform="translate(307.959949, 89.973447)"><g><path d="M 2.4375 -28.84375 L 2.4375 -31.765625 L 18.421875 -31.765625 L 18.421875 -28.84375 L 5.28125 -2.9375 L 18.1875 -2.9375 L 18.1875 0 L 1.703125 0 L 1.703125 -2.9375 L 14.859375 -28.84375 Z M 2.4375 -28.84375 "/></g></g></g><g fill="#57c5f0" fill-opacity="1"><g transform="translate(328.341122, 89.973447)"><g/></g></g><g fill="#faad26" fill-opacity="1"><g transform="translate(339.584154, 89.973447)"><g><path d="M 4.890625 -31.765625 L 12.265625 -31.765625 C 14.804688 -31.765625 16.734375 -31.160156 18.046875 -29.953125 C 19.367188 -28.753906 20.03125 -27.078125 20.03125 -24.921875 L 20.03125 -22 C 20.03125 -19.226562 18.875 -17.453125 16.5625 -16.671875 C 19.207031 -15.953125 20.53125 -14.140625 20.53125 -11.234375 L 20.53125 -6.84375 C 20.53125 -4.65625 19.878906 -2.96875 18.578125 -1.78125 C 17.273438 -0.59375 15.332031 0 12.75 0 L 4.890625 0 Z M 17.109375 -6.84375 L 17.109375 -11.234375 C 17.109375 -12.285156 16.71875 -13.238281 15.9375 -14.09375 C 15.15625 -14.957031 14.09375 -15.390625 12.75 -15.390625 L 8.3125 -15.390625 L 8.3125 -2.9375 L 12.75 -2.9375 C 14.125 -2.9375 15.191406 -3.316406 15.953125 -4.078125 C 16.722656 -4.847656 17.109375 -5.769531 17.109375 -6.84375 Z M 16.625 -22 L 16.625 -24.921875 C 16.625 -25.960938 16.238281 -26.875 15.46875 -27.65625 C 14.707031 -28.445312 13.640625 -28.84375 12.265625 -28.84375 L 8.3125 -28.84375 L 8.3125 -17.84375 L 12.265625 -17.84375 C 13.640625 -17.84375 14.707031 -18.265625 15.46875 -19.109375 C 16.238281 -19.953125 16.625 -20.914062 16.625 -22 Z M 16.625 -22 "/></g></g></g><g fill="#57c5f0" fill-opacity="1"><g transform="translate(364.277135, 89.973447)"><g><path d="M 9.140625 -31.765625 L 14.265625 -31.765625 L 21.453125 0 L 18.03125 0 L 16.375 -7.328125 L 7.03125 -7.328125 L 5.375 0 L 1.953125 0 Z M 11.6875 -27.953125 L 7.671875 -10.265625 L 15.6875 -10.265625 Z M 11.6875 -27.953125 "/></g></g></g><g fill="#57c5f0" fill-opacity="1"><g transform="translate(387.688599, 89.973447)"><g><path d="M 8.3125 0 L 4.890625 0 L 4.890625 -31.765625 L 12.265625 -31.765625 C 14.804688 -31.765625 16.734375 -31.160156 18.046875 -29.953125 C 19.367188 -28.753906 20.03125 -27.078125 20.03125 -24.921875 L 20.03125 -18.078125 C 20.03125 -14.753906 18.597656 -12.640625 15.734375 -11.734375 L 21.75 0 L 17.984375 0 L 12.265625 -11.234375 L 8.3125 -11.234375 Z M 16.625 -18.078125 L 16.625 -24.921875 C 16.625 -26.160156 16.25 -27.125 15.5 -27.8125 C 14.75 -28.5 13.671875 -28.84375 12.265625 -28.84375 L 8.3125 -28.84375 L 8.3125 -14.171875 L 12.265625 -14.171875 C 15.171875 -14.171875 16.625 -15.472656 16.625 -18.078125 Z M 16.625 -18.078125 "/></g></g></g><g fill="#57c5f0" fill-opacity="1"><g transform="translate(411.393316, 89.973447)"><g><path d="M 11.734375 -2.9375 L 11.734375 0 L 3.421875 0 L 3.421875 -2.9375 L 5.859375 -2.9375 L 5.859375 -28.84375 L 3.421875 -28.84375 L 3.421875 -31.765625 L 11.734375 -31.765625 L 11.734375 -28.84375 L 9.28125 -28.84375 L 9.28125 -2.9375 Z M 11.734375 -2.9375 "/></g></g></g><g fill="#57c5f0" fill-opacity="1"><g transform="translate(426.544782, 89.973447)"><g><path d="M 19.3125 0 L 4.890625 0 L 4.890625 -31.765625 L 18.8125 -31.765625 L 18.8125 -28.84375 L 8.3125 -28.84375 L 8.3125 -17.59375 L 16.859375 -17.59375 L 16.859375 -14.65625 L 8.3125 -14.65625 L 8.3125 -2.9375 L 19.3125 -2.9375 Z M 19.3125 0 "/></g></g></g><g fill="#57c5f0" fill-opacity="1"><g transform="translate(448.294475, 89.973447)"><g><path d="M 8.3125 0 L 4.890625 0 L 4.890625 -31.765625 L 12.265625 -31.765625 C 14.804688 -31.765625 16.734375 -31.160156 18.046875 -29.953125 C 19.367188 -28.753906 20.03125 -27.078125 20.03125 -24.921875 L 20.03125 -18.078125 C 20.03125 -14.753906 18.597656 -12.640625 15.734375 -11.734375 L 21.75 0 L 17.984375 0 L 12.265625 -11.234375 L 8.3125 -11.234375 Z M 16.625 -18.078125 L 16.625 -24.921875 C 16.625 -26.160156 16.25 -27.125 15.5 -27.8125 C 14.75 -28.5 13.671875 -28.84375 12.265625 -28.84375 L 8.3125 -28.84375 L 8.3125 -14.171875 L 12.265625 -14.171875 C 15.171875 -14.171875 16.625 -15.472656 16.625 -18.078125 Z M 16.625 -18.078125 "/></g></g></g><g clip-path="url(#6a0bd2ac6b)"><g clip-path="url(#d5d98d4ac9)"><path fill="#57c5f0" d="M 152.457031 92.734375 L 160.035156 92.734375 L 160.035156 100.3125 L 152.457031 100.3125 Z M 152.457031 92.734375 " fill-opacity="1" fill-rule="nonzero"/></g></g><g clip-path="url(#11d15c3f0b)"><g clip-path="url(#d78f80bde2)"><path fill="#faad26" d="M 111.15625 103 L 118.941406 103 L 118.941406 110.785156 L 111.15625 110.785156 Z M 111.15625 103 " fill-opacity="1" fill-rule="nonzero"/></g></g></svg>